<mxfile host="app.diagrams.net" agent="Mozilla/5.0 (Windows NT 10.0; Win64; x64) AppleWebKit/537.36 (KHTML, like Gecko) Chrome/136.0.0.0 Safari/537.36 Edg/136.0.0.0" version="27.1.6">
  <diagram name="Page-1" id="dd472eb7-4b8b-5cd9-a60b-b15522922e76">
    <mxGraphModel dx="2058" dy="1112" grid="1" gridSize="10" guides="1" tooltips="1" connect="1" arrows="1" fold="1" page="1" pageScale="1" pageWidth="1100" pageHeight="850" background="none" math="0" shadow="0">
      <root>
        <mxCell id="0" />
        <mxCell id="1" parent="0" />
        <mxCell id="374e34682ed331ee-1" value="Long range low altitude drone" style="ellipse;whiteSpace=wrap;html=1;rounded=0;shadow=0;dashed=0;comic=0;fontFamily=Verdana;fontSize=22;fontColor=#0069D1;fillColor=#f5f5f5;strokeColor=#666666;" parent="1" vertex="1">
          <mxGeometry x="330" y="180" width="400" height="400" as="geometry" />
        </mxCell>
        <mxCell id="45236fa5f4b8e91a-1" value="Aviation authority (DGAC)" style="ellipse;whiteSpace=wrap;html=1;rounded=0;shadow=0;dashed=0;comic=0;fontFamily=Verdana;fontSize=22;fontColor=#0069D1;fillColor=#f5f5f5;strokeColor=#666666;" parent="1" vertex="1">
          <mxGeometry x="90" y="470" width="160" height="160" as="geometry" />
        </mxCell>
        <mxCell id="45236fa5f4b8e91a-2" value="Meteorological conditions" style="ellipse;whiteSpace=wrap;html=1;rounded=0;shadow=0;dashed=0;comic=0;fontFamily=Verdana;fontSize=22;fontColor=#0069D1;fillColor=#f5f5f5;strokeColor=#666666;" parent="1" vertex="1">
          <mxGeometry x="640" y="610" width="170" height="160" as="geometry" />
        </mxCell>
        <mxCell id="45236fa5f4b8e91a-3" value="Terrain" style="ellipse;whiteSpace=wrap;html=1;rounded=0;shadow=0;dashed=0;comic=0;fontFamily=Verdana;fontSize=22;fontColor=#0069D1;fillColor=#f5f5f5;strokeColor=#666666;" parent="1" vertex="1">
          <mxGeometry x="800" y="230" width="160" height="160" as="geometry" />
        </mxCell>
        <mxCell id="45236fa5f4b8e91a-6" value="Operator" style="ellipse;whiteSpace=wrap;html=1;rounded=0;shadow=0;dashed=0;comic=0;fontFamily=Verdana;fontSize=22;fontColor=#0069D1;fillColor=#f5f5f5;strokeColor=#666666;" parent="1" vertex="1">
          <mxGeometry x="690" width="160" height="160" as="geometry" />
        </mxCell>
        <mxCell id="45236fa5f4b8e91a-7" value="Public" style="ellipse;whiteSpace=wrap;html=1;rounded=0;shadow=0;dashed=0;comic=0;fontFamily=Verdana;fontSize=22;fontColor=#0069D1;fillColor=#f5f5f5;strokeColor=#666666;" parent="1" vertex="1">
          <mxGeometry x="790" y="470" width="160" height="160" as="geometry" />
        </mxCell>
        <mxCell id="45236fa5f4b8e91a-8" value="GNSS + comms network" style="ellipse;whiteSpace=wrap;html=1;rounded=0;shadow=0;dashed=0;comic=0;fontFamily=Verdana;fontSize=22;fontColor=#0069D1;fillColor=#f5f5f5;strokeColor=#666666;" parent="1" vertex="1">
          <mxGeometry x="330" y="610" width="160" height="160" as="geometry" />
        </mxCell>
        <mxCell id="oKaYiAEmEWJjuPTstY0G-3" value="" style="curved=1;endArrow=classic;html=1;rounded=0;entryX=0;entryY=0.5;entryDx=0;entryDy=0;" parent="1" source="45236fa5f4b8e91a-6" target="45236fa5f4b8e91a-3" edge="1">
          <mxGeometry width="50" height="50" relative="1" as="geometry">
            <mxPoint x="430" y="150" as="sourcePoint" />
            <mxPoint x="480" y="100" as="targetPoint" />
            <Array as="points">
              <mxPoint x="560" y="210" />
              <mxPoint x="710" y="370" />
            </Array>
          </mxGeometry>
        </mxCell>
        <mxCell id="oKaYiAEmEWJjuPTstY0G-4" value="FP1 - To surveil terrain" style="edgeLabel;html=1;align=center;verticalAlign=middle;resizable=0;points=[];labelBorderColor=default;" parent="oKaYiAEmEWJjuPTstY0G-3" vertex="1" connectable="0">
          <mxGeometry x="-0.1671" y="10" relative="1" as="geometry">
            <mxPoint x="76" y="48" as="offset" />
          </mxGeometry>
        </mxCell>
        <mxCell id="oKaYiAEmEWJjuPTstY0G-5" value="" style="endArrow=none;html=1;rounded=0;" parent="1" source="374e34682ed331ee-1" target="45236fa5f4b8e91a-1" edge="1">
          <mxGeometry width="50" height="50" relative="1" as="geometry">
            <mxPoint x="530" y="490" as="sourcePoint" />
            <mxPoint x="580" y="440" as="targetPoint" />
          </mxGeometry>
        </mxCell>
        <mxCell id="oKaYiAEmEWJjuPTstY0G-16" value="FC6 - To respect&amp;nbsp;&lt;div&gt;DGAC rules&lt;/div&gt;" style="edgeLabel;html=1;align=center;verticalAlign=middle;resizable=0;points=[];labelBorderColor=default;" parent="oKaYiAEmEWJjuPTstY0G-5" vertex="1" connectable="0">
          <mxGeometry x="0.4003" y="1" relative="1" as="geometry">
            <mxPoint x="15" as="offset" />
          </mxGeometry>
        </mxCell>
        <mxCell id="oKaYiAEmEWJjuPTstY0G-6" value="" style="endArrow=none;html=1;rounded=0;" parent="1" source="374e34682ed331ee-1" target="45236fa5f4b8e91a-6" edge="1">
          <mxGeometry width="50" height="50" relative="1" as="geometry">
            <mxPoint x="530" y="490" as="sourcePoint" />
            <mxPoint x="580" y="440" as="targetPoint" />
          </mxGeometry>
        </mxCell>
        <mxCell id="oKaYiAEmEWJjuPTstY0G-7" value="FC1 - To be controlled by user" style="edgeLabel;html=1;align=center;verticalAlign=middle;resizable=0;points=[];labelBorderColor=default;" parent="oKaYiAEmEWJjuPTstY0G-6" vertex="1" connectable="0">
          <mxGeometry x="0.3556" y="-2" relative="1" as="geometry">
            <mxPoint x="78" y="11" as="offset" />
          </mxGeometry>
        </mxCell>
        <mxCell id="oKaYiAEmEWJjuPTstY0G-8" value="" style="endArrow=none;html=1;rounded=0;" parent="1" source="374e34682ed331ee-1" target="45236fa5f4b8e91a-3" edge="1">
          <mxGeometry width="50" height="50" relative="1" as="geometry">
            <mxPoint x="890" y="440" as="sourcePoint" />
            <mxPoint x="890" y="350" as="targetPoint" />
          </mxGeometry>
        </mxCell>
        <mxCell id="oKaYiAEmEWJjuPTstY0G-9" value="FC2 - To avoid terrain" style="edgeLabel;html=1;align=center;verticalAlign=middle;resizable=0;points=[];labelBorderColor=default;" parent="oKaYiAEmEWJjuPTstY0G-8" vertex="1" connectable="0">
          <mxGeometry x="0.3556" y="-2" relative="1" as="geometry">
            <mxPoint x="9" y="28" as="offset" />
          </mxGeometry>
        </mxCell>
        <mxCell id="oKaYiAEmEWJjuPTstY0G-10" value="" style="endArrow=none;html=1;rounded=0;" parent="1" source="45236fa5f4b8e91a-7" target="374e34682ed331ee-1" edge="1">
          <mxGeometry width="50" height="50" relative="1" as="geometry">
            <mxPoint x="530" y="490" as="sourcePoint" />
            <mxPoint x="580" y="440" as="targetPoint" />
          </mxGeometry>
        </mxCell>
        <mxCell id="oKaYiAEmEWJjuPTstY0G-13" value="FC3 - To ensure&lt;div&gt;&amp;nbsp;public safety&lt;/div&gt;" style="edgeLabel;html=1;align=center;verticalAlign=middle;resizable=0;points=[];labelBorderColor=default;" parent="oKaYiAEmEWJjuPTstY0G-10" vertex="1" connectable="0">
          <mxGeometry x="0.2604" y="2" relative="1" as="geometry">
            <mxPoint x="29" y="-18" as="offset" />
          </mxGeometry>
        </mxCell>
        <mxCell id="oKaYiAEmEWJjuPTstY0G-11" value="" style="endArrow=none;html=1;rounded=0;" parent="1" source="45236fa5f4b8e91a-2" target="374e34682ed331ee-1" edge="1">
          <mxGeometry width="50" height="50" relative="1" as="geometry">
            <mxPoint x="530" y="760" as="sourcePoint" />
            <mxPoint x="580" y="710" as="targetPoint" />
          </mxGeometry>
        </mxCell>
        <mxCell id="oKaYiAEmEWJjuPTstY0G-14" value="FC4 - To navigate in VMC conditions" style="edgeLabel;html=1;align=center;verticalAlign=middle;resizable=0;points=[];labelBorderColor=default;" parent="oKaYiAEmEWJjuPTstY0G-11" vertex="1" connectable="0">
          <mxGeometry x="0.4889" y="-1" relative="1" as="geometry">
            <mxPoint x="21" y="23" as="offset" />
          </mxGeometry>
        </mxCell>
        <mxCell id="oKaYiAEmEWJjuPTstY0G-12" value="" style="endArrow=none;html=1;rounded=0;" parent="1" source="45236fa5f4b8e91a-8" target="374e34682ed331ee-1" edge="1">
          <mxGeometry width="50" height="50" relative="1" as="geometry">
            <mxPoint x="330" y="600" as="sourcePoint" />
            <mxPoint x="380" y="550" as="targetPoint" />
          </mxGeometry>
        </mxCell>
        <mxCell id="oKaYiAEmEWJjuPTstY0G-15" value="FC5 - To communicate with user&amp;nbsp;&lt;div&gt;and locate&lt;/div&gt;" style="edgeLabel;html=1;align=center;verticalAlign=middle;resizable=0;points=[];labelBorderColor=default;" parent="oKaYiAEmEWJjuPTstY0G-12" vertex="1" connectable="0">
          <mxGeometry x="0.0611" y="3" relative="1" as="geometry">
            <mxPoint x="1" as="offset" />
          </mxGeometry>
        </mxCell>
        <mxCell id="oKaYiAEmEWJjuPTstY0G-17" value="Energy&amp;nbsp;&lt;div&gt;source&lt;/div&gt;" style="ellipse;whiteSpace=wrap;html=1;rounded=0;shadow=0;dashed=0;comic=0;fontFamily=Verdana;fontSize=22;fontColor=#0069D1;fillColor=#f5f5f5;strokeColor=#666666;" parent="1" vertex="1">
          <mxGeometry x="80" y="230" width="160" height="160" as="geometry" />
        </mxCell>
        <mxCell id="oKaYiAEmEWJjuPTstY0G-18" value="Assembly&lt;div&gt;crew&lt;/div&gt;" style="ellipse;whiteSpace=wrap;html=1;rounded=0;shadow=0;dashed=0;comic=0;fontFamily=Verdana;fontSize=22;fontColor=#0069D1;fillColor=#f5f5f5;strokeColor=#666666;" parent="1" vertex="1">
          <mxGeometry x="200" width="160" height="160" as="geometry" />
        </mxCell>
        <mxCell id="oKaYiAEmEWJjuPTstY0G-19" value="" style="endArrow=none;html=1;rounded=0;" parent="1" source="374e34682ed331ee-1" target="oKaYiAEmEWJjuPTstY0G-17" edge="1">
          <mxGeometry width="50" height="50" relative="1" as="geometry">
            <mxPoint x="530" y="490" as="sourcePoint" />
            <mxPoint x="580" y="440" as="targetPoint" />
          </mxGeometry>
        </mxCell>
        <mxCell id="oKaYiAEmEWJjuPTstY0G-21" value="FC7 - To consume energy&amp;nbsp;&lt;div&gt;for max autonomy&lt;/div&gt;" style="edgeLabel;html=1;align=center;verticalAlign=middle;resizable=0;points=[];labelBorderColor=default;" parent="oKaYiAEmEWJjuPTstY0G-19" vertex="1" connectable="0">
          <mxGeometry x="0.1621" y="-3" relative="1" as="geometry">
            <mxPoint as="offset" />
          </mxGeometry>
        </mxCell>
        <mxCell id="oKaYiAEmEWJjuPTstY0G-20" value="" style="endArrow=none;html=1;rounded=0;" parent="1" source="374e34682ed331ee-1" target="oKaYiAEmEWJjuPTstY0G-18" edge="1">
          <mxGeometry width="50" height="50" relative="1" as="geometry">
            <mxPoint x="530" y="490" as="sourcePoint" />
            <mxPoint x="580" y="440" as="targetPoint" />
          </mxGeometry>
        </mxCell>
        <mxCell id="oKaYiAEmEWJjuPTstY0G-22" value="FC8 - To faciltate assembly" style="edgeLabel;html=1;align=center;verticalAlign=middle;resizable=0;points=[];labelBorderColor=default;" parent="oKaYiAEmEWJjuPTstY0G-20" vertex="1" connectable="0">
          <mxGeometry x="0.1005" y="-2" relative="1" as="geometry">
            <mxPoint as="offset" />
          </mxGeometry>
        </mxCell>
      </root>
    </mxGraphModel>
  </diagram>
</mxfile>
